<?xml version="1.0" encoding="UTF-8" standalone="no"?>
<svg
   xmlns:dc="http://purl.org/dc/elements/1.1/"
   xmlns:cc="http://creativecommons.org/ns#"
   xmlns:rdf="http://www.w3.org/1999/02/22-rdf-syntax-ns#"
   xmlns:svg="http://www.w3.org/2000/svg"
   xmlns="http://www.w3.org/2000/svg"
   xmlns:sodipodi="http://sodipodi.sourceforge.net/DTD/sodipodi-0.dtd"
   xmlns:inkscape="http://www.inkscape.org/namespaces/inkscape"
   inkscape:version="1.0 (4035a4fb49, 2020-05-01)"
   sodipodi:docname="logo_3.svg"
   id="svg198"
   viewBox="0 0 700 254"
   version="1.1"
   height="auto"
   width="80%">
  <defs
     id="defs202" />
  <sodipodi:namedview
     inkscape:current-layer="svg198"
     inkscape:window-maximized="1"
     inkscape:window-y="-8"
     inkscape:window-x="-8"
     inkscape:cy="127"
     inkscape:cx="350"
     inkscape:zoom="1.5185714"
     showgrid="false"
     id="namedview200"
     inkscape:window-height="1017"
     inkscape:window-width="1920"
     inkscape:pageshadow="2"
     inkscape:pageopacity="0"
     guidetolerance="10"
     gridtolerance="10"
     objecttolerance="10"
     borderopacity="1"
     bordercolor="#666666"
     pagecolor="#ffffff" />
  <metadata
     id="metadata2">
    <rdf:RDF>
      <cc:Work
         rdf:about="">
        <dc:format>image/svg+xml</dc:format>
        <dc:type
           rdf:resource="http://purl.org/dc/dcmitype/StillImage" />
        <dc:title></dc:title>
      </cc:Work>
    </rdf:RDF>
  </metadata>
  <g
     id="g32"
     stroke-width=".6"
     stroke="#bcb395"
     class="layer1">
    <circle
       id="circle4"
       opacity=".999"
       fill="none"
       r="90"
       cy="127"
       cx="127" />
    <rect
       id="rect6"
       opacity=".999"
       fill="none"
       height="127"
       width="127"
       y="63.360390"
       x="63.360390" />
    <line
       id="line8"
       y2="217"
       x2="127"
       y1="37"
       x1="127" />
    <line
       id="line10"
       y2="127"
       x2="217"
       y1="127"
       x1="37" />
    <line
       id="line12"
       y2="37"
       x2="127"
       y1="127"
       x1="37" />
    <line
       id="line14"
       y2="217"
       x2="127"
       y1="127"
       x1="37" />
    <line
       id="line16"
       y2="127"
       x2="217"
       y1="37"
       x1="127" />
    <line
       id="line18"
       y2="127"
       x2="217"
       y1="217"
       x1="127" />
    <line
       id="line20"
       y2="51"
       x2="127"
       y1="127"
       x1="51" />
    <line
       id="line22"
       y2="64"
       x2="127"
       y1="127"
       x1="64" />
    <line
       id="line24"
       y2="127"
       x2="190"
       y1="190"
       x1="127" />
    <line
       id="line26"
       y2="127"
       x2="203"
       y1="203"
       x1="127" />
    <line
       id="line28"
       style="stroke:#bcb395;stroke-width:0.6;stroke-miterlimit:4;stroke-dasharray:0.96000001,1.92000001;stroke-dashoffset:0"
       y2="190.639610"
       x2="190.639610"
       y1="63.360390"
       x1="63.360390" />
    <line
       id="line30"
       style="stroke:#bcb395;stroke-width:0.6;stroke-miterlimit:4;stroke-dasharray:0.96000001,1.92000001;stroke-dashoffset:0"
       y2="63.360390"
       x2="190.639610"
       y1="190.639610"
       x1="63.360390" />
  </g>
  <g
     id="g62"
     stroke-width=".45"
     class="layer2">
    <circle
       id="circle34"
       stroke="#155493"
       fill="#155493"
       r="6.2"
       cy="127"
       cx="53.5"
       class="circle5-1" />
    <circle
       id="circle36"
       stroke="#009ED1"
       fill="#009ED1"
       r="6.2"
       cy="127"
       cx="66.5"
       class="circle5-2" />
    <circle
       id="circle38"
       stroke="#F28D3B"
       fill="#F28D3B"
       r="6.2"
       cy="127"
       cx="200.5"
       class="circle5-3" />
    <circle
       id="circle40"
       stroke="#EFBE3D"
       fill="#EFBE3D"
       r="6.2"
       cy="127"
       cx="187.5"
       class="circle5-4" />
    <circle
       id="circle42"
       stroke="#155493"
       fill="#155493"
       r="6.2"
       cy="53.5"
       cx="127"
       class="circle5-5" />
    <circle
       id="circle44"
       stroke="#009ED1"
       fill="#009ED1"
       r="6.2"
       cy="66.5"
       cx="127"
       class="circle5-6" />
    <circle
       id="circle46"
       stroke="#F28D3B"
       fill="#F28D3B"
       r="6.2"
       cy="200.5"
       cx="127"
       class="circle5-7" />
    <circle
       id="circle48"
       stroke="#EFBE3D"
       fill="#EFBE3D"
       r="6.2"
       cy="187.5"
       cx="127"
       class="circle5-8" />
    <!-- -->
    <circle
       id="circle50"
       stroke="#664074"
       fill="#664074"
       r="4.2"
       cy="82"
       cx="82"
       class="circle4-1" />
    <circle
       id="circle52"
       stroke="#155493"
       fill="#155493"
       r="4.2"
       cy="89"
       cx="89"
       class="circle4-2" />
    <circle
       id="circle54"
       stroke="#009ED1"
       fill="#009ED1"
       r="4.2"
       cy="95.5"
       cx="95.5"
       class="circle4-3" />
    <circle
       id="circle56"
       stroke="#EFBE3D"
       fill="#EFBE3D"
       r="4.2"
       cy="158.5"
       cx="158.5"
       class="circle4-4" />
    <circle
       id="circle58"
       stroke="#E54144"
       fill="#E54144"
       r="4.2"
       cy="172"
       cx="172"
       class="circle4-5" />
    <circle
       id="circle60"
       stroke="#F28D3B"
       fill="#F28D3B"
       r="4.2"
       cy="165"
       cx="165"
       class="circle4-6" />
  </g>
  <g
     id="g194"
     class="layer3">
    <circle
       id="circle64"
       stroke-width="0.45"
       stroke="#009E52"
       fill="#009E52"
       r="10"
       cy="127"
       cx="127"
       class="circle-c" />
    <!-- -->
    <circle
       id="circle66"
       stroke-width="0.45"
       stroke="#664074"
       fill="#664074"
       r="9.34"
       cy="127"
       cx="37"
       class="circle-0" />
    <circle
       id="circle68"
       stroke-width="0.45"
       stroke="#bcb395"
       fill="#bcb395"
       r="9.34"
       cy="63.360390"
       cx="63.360390"
       class="circle-10" />
    <circle
       id="circle70"
       stroke-width="0.45"
       stroke="#664074"
       fill="#664074"
       r="9.34"
       cy="37"
       cx="127"
       class="circle-20" />
    <circle
       id="circle72"
       stroke-width="0.45"
       stroke="#bcb395"
       fill="#bcb395"
       r="9.34"
       cy="63.360390"
       cx="190.639610"
       class="circle-30" />
    <circle
       id="circle74"
       stroke-width="0.45"
       stroke="#E54144"
       fill="#E54144"
       r="9.34"
       cy="127"
       cx="217"
       class="circle-40" />
    <circle
       id="circle76"
       stroke-width="0.45"
       stroke="#bcb395"
       fill="#bcb395"
       r="9.34"
       cy="190.639610"
       cx="190.639610"
       class="circle-50" />
    <circle
       id="circle78"
       stroke-width="0.45"
       stroke="#E54144"
       fill="#E54144"
       r="9.34"
       cy="217"
       cx="127"
       class="circle-60" />
    <circle
       id="circle80"
       stroke-width="0.45"
       stroke="#bcb395"
       fill="#bcb395"
       r="9.34"
       cy="190.639610"
       cx="63.360390"
       class="circle-70" />
    <!-- -->
    <circle
       id="circle82"
       stroke-width="0.45"
       stroke="#bcb395"
       fill="#bcb395"
       r="1.22"
       cy="112.920898"
       cx="38.108049"
       class="circle-2" />
    <circle
       id="circle84"
       stroke-width="0.45"
       stroke="#bcb395"
       fill="#bcb395"
       r="1.22"
       cy="105.989917"
       cx="39.486707"
       class="circle-3" />
    <circle
       id="circle86"
       stroke-width="0.45"
       stroke="#bcb395"
       fill="#bcb395"
       r="1.22"
       cy="99.188471"
       cx="41.404914"
       class="circle-4" />
    <circle
       id="circle88"
       stroke-width="0.6"
       stroke="#bcb395"
       fill="#ffffff"
       r="1.22"
       cy="92.558491"
       cx="43.850842"
       class="circle-5" />
    <circle
       id="circle90"
       stroke-width="0.45"
       stroke="#bcb395"
       fill="#bcb395"
       r="1.22"
       cy="86.140855"
       cx="46.809413"
       class="circle-6" />
    <circle
       id="circle92"
       stroke-width="0.45"
       stroke="#bcb395"
       fill="#bcb395"
       r="1.22"
       cy="79.975129"
       cx="50.262385"
       class="circle-7" />
    <circle
       id="circle94"
       stroke-width="0.45"
       stroke="#bcb395"
       fill="#bcb395"
       r="1.22"
       cy="74.099327"
       cx="54.188471"
       class="circle-8" />
    <circle
       id="circle96"
       stroke-width="0.45"
       stroke="#bcb395"
       fill="#bcb395"
       r="1.22"
       cy="54.188471"
       cx="74.099327"
       class="circle-12" />
    <circle
       id="circle98"
       stroke-width="0.45"
       stroke="#bcb395"
       fill="#bcb395"
       r="1.22"
       cy="50.262385"
       cx="79.975129"
       class="circle-13" />
    <circle
       id="circle100"
       stroke-width="0.45"
       stroke="#bcb395"
       fill="#bcb395"
       r="1.22"
       cy="46.809413"
       cx="86.140855"
       class="circle-14" />
    <circle
       id="circle102"
       stroke-width="0.6"
       stroke="#bcb395"
       fill="#ffffff"
       r="1.22"
       cy="43.850842"
       cx="92.558491"
       class="circle-15" />
    <circle
       id="circle104"
       stroke-width="0.45"
       stroke="#bcb395"
       fill="#bcb395"
       r="1.22"
       cy="41.404914"
       cx="99.188471"
       class="circle-16" />
    <circle
       id="circle106"
       stroke-width="0.45"
       stroke="#bcb395"
       fill="#bcb395"
       r="1.22"
       cy="39.486707"
       cx="105.989917"
       class="circle-17" />
    <circle
       id="circle108"
       stroke-width="0.45"
       stroke="#bcb395"
       fill="#bcb395"
       r="1.22"
       cy="38.108049"
       cx="112.920898"
       class="circle-18" />
    <circle
       id="circle110"
       stroke-width="0.45"
       stroke="#bcb395"
       fill="#bcb395"
       r="1.22"
       cy="38.108049"
       cx="141.079102"
       class="circle-22" />
    <circle
       id="circle112"
       stroke-width="0.45"
       stroke="#bcb395"
       fill="#bcb395"
       r="1.22"
       cy="39.486707"
       cx="148.010083"
       class="circle-23" />
    <circle
       id="circle114"
       stroke-width="0.45"
       stroke="#bcb395"
       fill="#bcb395"
       r="1.22"
       cy="41.404914"
       cx="154.811529"
       class="circle-24" />
    <circle
       id="circle116"
       stroke-width="0.6"
       stroke="#bcb395"
       fill="#ffffff"
       r="1.22"
       cy="43.850842"
       cx="161.441509"
       class="circle-25" />
    <circle
       id="circle118"
       stroke-width="0.45"
       stroke="#bcb395"
       fill="#bcb395"
       r="1.22"
       cy="46.809413"
       cx="167.859145"
       class="circle-26" />
    <circle
       id="circle120"
       stroke-width="0.45"
       stroke="#bcb395"
       fill="#bcb395"
       r="1.22"
       cy="50.262385"
       cx="174.024871"
       class="circle-27" />
    <circle
       id="circle122"
       stroke-width="0.45"
       stroke="#bcb395"
       fill="#bcb395"
       r="1.22"
       cy="54.188471"
       cx="179.900673"
       class="circle-28" />
    <circle
       id="circle124"
       stroke-width="0.45"
       stroke="#bcb395"
       fill="#bcb395"
       r="1.22"
       cy="74.099327"
       cx="199.811529"
       class="circle-32" />
    <circle
       id="circle126"
       stroke-width="0.45"
       stroke="#bcb395"
       fill="#bcb395"
       r="1.22"
       cy="79.975129"
       cx="203.737615"
       class="circle-33" />
    <circle
       id="circle128"
       stroke-width="0.45"
       stroke="#bcb395"
       fill="#bcb395"
       r="1.22"
       cy="86.140855"
       cx="207.190587"
       class="circle-34" />
    <circle
       id="circle130"
       stroke-width="0.6"
       stroke="#bcb395"
       fill="#ffffff"
       r="1.22"
       cy="92.558491"
       cx="210.149158"
       class="circle-35" />
    <circle
       id="circle132"
       stroke-width="0.45"
       stroke="#bcb395"
       fill="#bcb395"
       r="1.22"
       cy="99.188471"
       cx="212.595086"
       class="circle-36" />
    <circle
       id="circle134"
       stroke-width="0.45"
       stroke="#bcb395"
       fill="#bcb395"
       r="1.22"
       cy="105.989917"
       cx="214.513293"
       class="circle-37" />
    <circle
       id="circle136"
       stroke-width="0.45"
       stroke="#bcb395"
       fill="#bcb395"
       r="1.22"
       cy="112.920898"
       cx="215.891951"
       class="circle-38" />
    <circle
       id="circle138"
       stroke-width="0.45"
       stroke="#bcb395"
       fill="#bcb395"
       r="1.22"
       cy="141.079102"
       cx="215.891951"
       class="circle-42" />
    <circle
       id="circle140"
       stroke-width="0.45"
       stroke="#bcb395"
       fill="#bcb395"
       r="1.22"
       cy="148.010083"
       cx="214.513293"
       class="circle-43" />
    <circle
       id="circle142"
       stroke-width="0.45"
       stroke="#bcb395"
       fill="#bcb395"
       r="1.22"
       cy="154.811529"
       cx="212.595086"
       class="circle-44" />
    <circle
       id="circle144"
       stroke-width="0.6"
       stroke="#bcb395"
       fill="#ffffff"
       r="1.22"
       cy="161.441509"
       cx="210.149158"
       class="circle-45" />
    <circle
       id="circle146"
       stroke-width="0.45"
       stroke="#bcb395"
       fill="#bcb395"
       r="1.22"
       cy="167.859145"
       cx="207.190587"
       class="circle-46" />
    <circle
       id="circle148"
       stroke-width="0.45"
       stroke="#bcb395"
       fill="#bcb395"
       r="1.22"
       cy="174.024871"
       cx="203.737615"
       class="circle-47" />
    <circle
       id="circle150"
       stroke-width="0.45"
       stroke="#bcb395"
       fill="#bcb395"
       r="1.22"
       cy="179.900673"
       cx="199.811529"
       class="circle-48" />
    <circle
       id="circle152"
       stroke-width="0.45"
       stroke="#bcb395"
       fill="#bcb395"
       r="1.22"
       cy="199.811529"
       cx="179.900673"
       class="circle-52" />
    <circle
       id="circle154"
       stroke-width="0.45"
       stroke="#bcb395"
       fill="#bcb395"
       r="1.22"
       cy="203.737615"
       cx="174.024871"
       class="circle-53" />
    <circle
       id="circle156"
       stroke-width="0.45"
       stroke="#bcb395"
       fill="#bcb395"
       r="1.22"
       cy="207.190587"
       cx="167.859145"
       class="circle-54" />
    <circle
       id="circle158"
       stroke-width="0.6"
       stroke="#bcb395"
       fill="#ffffff"
       r="1.22"
       cy="210.149158"
       cx="161.441509"
       class="circle-55" />
    <circle
       id="circle160"
       stroke-width="0.45"
       stroke="#bcb395"
       fill="#bcb395"
       r="1.22"
       cy="212.595086"
       cx="154.811529"
       class="circle-56" />
    <circle
       id="circle162"
       stroke-width="0.45"
       stroke="#bcb395"
       fill="#bcb395"
       r="1.22"
       cy="214.513293"
       cx="148.010083"
       class="circle-57" />
    <circle
       id="circle164"
       stroke-width="0.45"
       stroke="#bcb395"
       fill="#bcb395"
       r="1.22"
       cy="215.891951"
       cx="141.079102"
       class="circle-58" />
    <circle
       id="circle166"
       stroke-width="0.45"
       stroke="#bcb395"
       fill="#bcb395"
       r="1.22"
       cy="215.891951"
       cx="112.920898"
       class="circle-62" />
    <circle
       id="circle168"
       stroke-width="0.45"
       stroke="#bcb395"
       fill="#bcb395"
       r="1.22"
       cy="214.513293"
       cx="105.989917"
       class="circle-63" />
    <circle
       id="circle170"
       stroke-width="0.45"
       stroke="#bcb395"
       fill="#bcb395"
       r="1.22"
       cy="212.595086"
       cx="99.188471"
       class="circle-64" />
    <circle
       id="circle172"
       stroke-width="0.6"
       stroke="#bcb395"
       fill="#ffffff"
       r="1.22"
       cy="210.149158"
       cx="92.558491"
       class="circle-65" />
    <circle
       id="circle174"
       stroke-width="0.45"
       stroke="#bcb395"
       fill="#bcb395"
       r="1.22"
       cy="207.190587"
       cx="86.140855"
       class="circle-66" />
    <circle
       id="circle176"
       stroke-width="0.45"
       stroke="#bcb395"
       fill="#bcb395"
       r="1.22"
       cy="203.737615"
       cx="79.975129"
       class="circle-67" />
    <circle
       id="circle178"
       stroke-width="0.45"
       stroke="#bcb395"
       fill="#bcb395"
       r="1.22"
       cy="199.811529"
       cx="74.099327"
       class="circle-68" />
    <circle
       id="circle180"
       stroke-width="0.45"
       stroke="#bcb395"
       fill="#bcb395"
       r="1.22"
       cy="179.900673"
       cx="54.188471"
       class="circle-72" />
    <circle
       id="circle182"
       stroke-width="0.45"
       stroke="#bcb395"
       fill="#bcb395"
       r="1.22"
       cy="174.024871"
       cx="50.262385"
       class="circle-73" />
    <circle
       id="circle184"
       stroke-width="0.45"
       stroke="#bcb395"
       fill="#bcb395"
       r="1.22"
       cy="167.859145"
       cx="46.809413"
       class="circle-74" />
    <circle
       id="circle186"
       stroke-width="0.6"
       stroke="#bcb395"
       fill="#ffffff"
       r="1.22"
       cy="161.441509"
       cx="43.850842"
       class="circle-75" />
    <circle
       id="circle188"
       stroke-width="0.45"
       stroke="#bcb395"
       fill="#bcb395"
       r="1.22"
       cy="154.811529"
       cx="41.404914"
       class="circle-76" />
    <circle
       id="circle190"
       stroke-width="0.45"
       stroke="#bcb395"
       fill="#bcb395"
       r="1.22"
       cy="148.010083"
       cx="39.486707"
       class="circle-77" />
    <circle
       id="circle192"
       stroke-width="0.45"
       stroke="#bcb395"
       fill="#bcb395"
       r="1.22"
       cy="141.079102"
       cx="38.108049"
       class="circle-78" />
  </g>
  <g
     style="font-style:normal;font-variant:normal;font-weight:normal;font-stretch:normal;font-size:70px;font-family:Gabriola;-inkscape-font-specification:'Gabriola, Normal';font-variant-ligatures:normal;font-variant-caps:normal;font-variant-numeric:normal;font-variant-east-asian:normal;fill:#bcb395"
     id="text196"
     aria-label="Matriz del Destino">
    <path
       id="path1027"
       style="font-style:normal;font-variant:normal;font-weight:normal;font-stretch:normal;font-size:70px;font-family:Gabriola;-inkscape-font-specification:'Gabriola, Normal';font-variant-ligatures:normal;font-variant-caps:normal;font-variant-numeric:normal;font-variant-east-asian:normal;fill:#bcb395"
       d="m 296.09131,146.23535 q -1.23047,0.52979 -2.27295,0.92285 -1.02539,0.37598 -1.91406,0.61524 -0.88868,0.25635 -1.65772,0.37597 -0.76904,0.11963 -1.48681,0.11963 -0.97413,0 -1.70899,-0.37597 -0.73486,-0.35889 -1.23047,-1.19629 -0.47851,-0.83741 -0.71777,-2.20459 -0.23926,-1.36719 -0.23926,-3.38379 v -1.50391 q 0,-1.05957 0,-2.44385 0.0171,-1.40136 0.0342,-2.95654 0.0171,-1.57226 0.0342,-3.1958 0.0342,-1.62353 0.0684,-3.12744 0.0342,-1.521 0.0684,-2.83691 0.0342,-1.31592 0.0684,-2.23877 0.0854,-1.99952 0.18799,-3.98194 0.11963,-1.99951 0.30761,-3.91357 l -0.13671,-0.0513 q -0.29053,0.76904 -0.70069,1.76025 -0.41015,0.97412 -1.04248,2.3584 -1.5039,3.31543 -3.07617,6.87012 -1.55518,3.55469 -3.16162,7.26318 -1.58936,3.69141 -3.21289,7.50244 -1.62354,3.79395 -3.22998,7.58789 l -0.83741,-0.0342 q -0.35888,-1.16211 -0.87158,-2.73437 -0.51269,-1.58936 -1.12793,-3.41797 -0.61523,-1.8457 -1.31591,-3.87939 -0.6836,-2.05079 -1.40137,-4.13575 -0.71778,-2.10205 -1.45264,-4.18701 -0.71777,-2.08496 -1.40137,-4.01611 -0.6665,-1.93115 -1.28173,-3.62305 -0.59815,-1.70898 -1.07666,-3.04199 -0.54688,-1.55518 -0.95704,-2.75147 -0.39306,-1.19628 -0.68359,-2.11914 l -0.11963,0.0513 q 0,0.5127 0,1.02539 0.0171,0.49561 0.0171,1.07666 v 2.81983 q 0,2.71728 -0.0854,5.5542 -0.0854,2.81982 -0.22217,5.57129 -0.13671,2.73437 -0.3247,5.29785 -0.18799,2.56347 -0.39307,4.73388 -0.1709,1.79444 -0.32471,3.05909 -0.13671,1.24756 -0.3247,2.10205 -0.1709,0.85449 -0.42725,1.3501 -0.25635,0.47851 -0.64941,0.73486 -0.37598,0.25635 -0.93994,0.32471 -0.54688,0.0684 -1.31592,0.0684 h -0.5127 q -0.15381,0 -0.37597,-0.0171 -0.22217,0 -0.54688,-0.0171 l -0.23926,-0.1709 q 0.80323,-1.65772 1.41846,-3.69141 0.63232,-2.05078 1.09375,-4.34082 0.47852,-2.29004 0.82031,-4.73389 0.3418,-2.46093 0.56397,-4.90478 0.23925,-2.44385 0.37597,-4.81934 0.15381,-2.37549 0.22217,-4.51172 0.0684,-2.13623 0.0855,-3.94775 0.0342,-1.81152 0.0342,-3.16162 0,-0.87158 -0.11963,-1.43555 -0.11963,-0.56396 -0.42724,-0.88867 -0.29053,-0.3418 -0.82032,-0.46143 -0.51269,-0.13671 -1.333,-0.13671 -0.56397,0 -1.29883,0.0854 -0.73487,0.0684 -1.62354,0.20508 l -0.18799,-1.5039 q 3.12745,-0.71778 5.14405,-1.05957 2.0166,-0.35889 3.21289,-0.35889 0.61523,0 1.05957,0.11963 0.44433,0.10254 0.76904,0.37598 0.3418,0.25634 0.59815,0.70068 0.25634,0.42724 0.4956,1.07666 0.90576,2.5293 1.91406,5.3833 1.0083,2.854 2.05078,5.82764 1.05957,2.97363 2.10206,5.96435 1.05957,2.97363 2.03369,5.77637 0.37597,1.11084 0.68359,2.03369 0.32471,0.90576 0.58105,1.69189 0.27344,0.76905 0.49561,1.48682 0.23926,0.70068 0.44434,1.40137 h 0.11963 q 0.27343,-0.73486 0.56396,-1.43555 0.29053,-0.71777 0.61523,-1.46972 0.32471,-0.76905 0.70069,-1.64063 0.39306,-0.87158 0.87158,-1.96533 1.19629,-2.73438 2.47803,-5.67383 1.29883,-2.93945 2.64892,-6.01562 1.36719,-3.07618 2.76856,-6.2378 1.40137,-3.16162 2.81982,-6.34033 0.15381,-0.3418 0.41016,-0.56396 0.27344,-0.22217 0.58105,-0.3418 0.32471,-0.13672 0.66651,-0.18799 0.34179,-0.0513 0.63232,-0.0513 0.49561,0 1.07666,0.13672 0.59815,0.11963 1.14502,0.35889 -0.25635,2.80273 -0.46142,5.36621 -0.18799,2.56347 -0.32471,4.99023 -0.13672,2.42676 -0.23926,4.80225 -0.10254,2.3584 -0.15381,4.76806 -0.0513,2.40967 -0.0854,4.92188 -0.0171,2.51221 -0.0171,5.24658 0,1.81152 0.15381,3.09326 0.15381,1.28174 0.52979,2.10205 0.39306,0.80323 1.04248,1.1792 0.64941,0.37598 1.62353,0.37598 0.35889,0 0.6836,-0.0171 0.34179,-0.0171 0.70068,-0.0684 0.35889,-0.0684 0.78613,-0.18799 0.44434,-0.11963 1.0083,-0.30762 z" />
    <path
       id="path1029"
       style="font-style:normal;font-variant:normal;font-weight:normal;font-stretch:normal;font-size:70px;font-family:Gabriola;-inkscape-font-specification:'Gabriola, Normal';font-variant-ligatures:normal;font-variant-caps:normal;font-variant-numeric:normal;font-variant-east-asian:normal;fill:#bcb395"
       d="m 311.50635,129.93164 q 0,-1.3501 -0.44434,-2.34131 -0.44433,-0.99121 -1.16211,-1.62353 -0.71777,-0.63233 -1.62353,-0.93994 -0.90576,-0.30762 -1.81153,-0.30762 -1.21338,0 -2.05078,0.25635 -0.8374,0.25634 -1.36719,0.70068 -0.51269,0.44434 -0.75195,1.05957 -0.22217,0.59814 -0.22217,1.29883 0,0.82031 0.29053,1.65771 0.30762,0.82032 0.88867,1.60645 l -0.0684,0.18799 q -0.97412,0.47851 -1.96533,0.47851 -0.58105,0 -1.09375,-0.1709 -0.4956,-0.18798 -0.87158,-0.52978 -0.35889,-0.3418 -0.58106,-0.8374 -0.20507,-0.49561 -0.20507,-1.11084 0,-1.0083 0.47851,-1.89698 0.49561,-0.88867 1.29883,-1.62353 0.80322,-0.73486 1.86279,-1.31592 1.05957,-0.58105 2.1875,-0.97412 1.12793,-0.41016 2.25586,-0.61523 1.14502,-0.22217 2.11914,-0.22217 1.79444,0 3.05909,0.47851 1.28173,0.47852 2.06787,1.40137 0.80322,0.90576 1.16211,2.20459 0.37597,1.29883 0.37597,2.93945 0,1.12793 -0.10254,2.47803 -0.0854,1.3501 -0.20507,2.83691 -0.11963,1.46973 -0.22217,3.042 -0.0854,1.57226 -0.0854,3.12744 0,2.46094 0.90576,3.70849 0.92285,1.23047 2.40967,1.23047 1.31592,0 2.93945,-0.97412 l 0.49561,0.73486 q -1.14502,1.14502 -2.49512,1.74317 -1.3501,0.59814 -2.83691,0.59814 -1.11084,0 -2.05079,-0.37597 -0.93994,-0.37598 -1.62353,-1.11084 -0.68359,-0.75196 -1.05957,-1.87989 -0.37598,-1.12793 -0.37598,-2.61474 0,-0.44434 0.0171,-0.88867 0.0342,-0.44434 0.11963,-0.93995 h -0.10254 q -0.73486,1.46973 -1.70898,2.90528 -0.95703,1.41846 -2.11914,2.54638 -1.14502,1.11084 -2.46094,1.79444 -1.29883,0.70068 -2.73438,0.70068 -1.1792,0 -2.15332,-0.41015 -0.97412,-0.41016 -1.6748,-1.12793 -0.68359,-0.71778 -1.07666,-1.6919 -0.37598,-0.99121 -0.37598,-2.15332 0,-1.5039 0.54688,-2.73437 0.56396,-1.23047 1.53808,-2.20459 0.99121,-0.97412 2.3584,-1.67481 1.36719,-0.71777 2.97363,-1.1792 1.60645,-0.47851 3.40088,-0.70068 1.79444,-0.23926 3.65723,-0.23926 0.11963,-1.07666 0.18799,-2.08496 0.0854,-1.0083 0.0854,-2.22168 z m -10.49317,11.74072 q 0,0.66651 0.13672,1.28174 0.15381,0.59815 0.46143,1.05957 0.32471,0.46143 0.80322,0.73487 0.49561,0.25634 1.1792,0.25634 0.76904,0 1.58936,-0.35888 0.82031,-0.35889 1.60644,-0.99121 0.80322,-0.63233 1.521,-1.50391 0.73486,-0.88867 1.31591,-1.93115 0.58106,-1.04248 0.95704,-2.1875 0.39306,-1.16211 0.51269,-2.37549 -1.26465,0.0342 -2.51221,0.1709 -1.24755,0.11963 -2.37548,0.39306 -1.11084,0.27344 -2.06788,0.71778 -0.95703,0.44433 -1.65771,1.11084 -0.68359,0.64941 -1.07666,1.55517 -0.39307,0.88867 -0.39307,2.06787 z" />
    <path
       id="path1031"
       style="font-style:normal;font-variant:normal;font-weight:normal;font-stretch:normal;font-size:70px;font-family:Gabriola;-inkscape-font-specification:'Gabriola, Normal';font-variant-ligatures:normal;font-variant-caps:normal;font-variant-numeric:normal;font-variant-east-asian:normal;fill:#bcb395"
       d="m 331.05713,110.55176 q -0.71777,3.24707 -1.21338,6.71631 -0.47852,3.45214 -0.82031,6.81884 0.80322,0.0342 1.55517,0.0513 0.76905,0.0171 1.41846,0.0342 0.6665,0.0171 1.19629,0.0171 0.54687,0 0.90576,0 1.55518,0 2.54639,-0.18799 0.0854,0.29053 0.13672,0.52979 0.0513,0.23926 0.0513,0.44434 0,0.75195 -0.63233,0.97412 -0.61523,0.22217 -1.79443,0.22217 -1.12793,0 -2.5293,-0.13672 -1.38428,-0.13672 -3.04199,-0.25635 -0.18799,1.82861 -0.32471,3.57178 -0.11963,1.72607 -0.20508,3.26416 -0.0684,1.53808 -0.10254,2.854 -0.0342,1.31592 -0.0342,2.29004 0,1.82861 0.18798,3.26416 0.18799,1.43555 0.66651,2.44385 0.47851,0.99121 1.31592,1.52099 0.8374,0.52979 2.11914,0.52979 0.92285,0 2.05078,-0.32471 1.14502,-0.32471 2.59765,-1.04248 0.46143,0.46143 0.52979,1.12793 -1.05957,0.70068 -2.13623,1.28174 -1.07666,0.56396 -2.11914,0.97412 -1.04248,0.41016 -2.0166,0.63232 -0.97413,0.22217 -1.84571,0.22217 -1.14502,0 -2.10205,-0.42724 -0.93994,-0.41016 -1.64062,-1.46973 -0.6836,-1.07666 -1.07666,-2.88818 -0.37598,-1.81153 -0.37598,-4.58008 0,-1.55518 0.0513,-3.1958 0.0513,-1.65772 0.13672,-3.34961 0.0854,-1.6919 0.22217,-3.38379 0.13672,-1.6919 0.30761,-3.33252 -1.35009,0.0171 -2.5122,0.11963 -1.14502,0.0855 -1.96534,0.29053 -0.0513,-0.10254 -0.0513,-0.23926 0,-0.35889 0.34179,-0.66651 0.35889,-0.3247 0.97412,-0.58105 0.63233,-0.25635 1.50391,-0.42725 0.87158,-0.1709 1.91406,-0.23926 0.39307,-3.57177 0.8374,-6.75048 0.44434,-3.17871 0.88868,-5.67383 0.0854,-0.44434 0.30761,-0.73486 0.23926,-0.29053 0.54688,-0.46143 0.30762,-0.1709 0.6665,-0.23926 0.35889,-0.0684 0.70069,-0.0684 0.56396,0 1.0083,0.11963 0.46142,0.11963 0.85449,0.3418 z" />
    <path
       id="path1033"
       style="font-style:normal;font-variant:normal;font-weight:normal;font-stretch:normal;font-size:70px;font-family:Gabriola;-inkscape-font-specification:'Gabriola, Normal';font-variant-ligatures:normal;font-variant-caps:normal;font-variant-numeric:normal;font-variant-east-asian:normal;fill:#bcb395"
       d="m 340.43945,147.94434 -0.27343,-0.0171 q 0.11962,-1.62354 0.22216,-3.55469 0.11963,-1.94824 0.20508,-4.0332 0.10254,-2.08497 0.1709,-4.23829 0.0854,-2.17041 0.13672,-4.23828 0.0684,-2.06787 0.10254,-3.96484 0.0513,-1.91406 0.0684,-3.50342 0,-0.51269 0.22217,-0.8374 0.22216,-0.32471 0.54687,-0.5127 0.32471,-0.18798 0.70068,-0.25634 0.37598,-0.0684 0.6836,-0.0684 0.64941,0 1.1792,0.15381 0.52978,0.13671 1.02539,0.37597 -0.23926,1.33301 -0.42725,3.07617 -0.18799,1.72608 -0.37598,3.7085 -0.17089,1.98242 -0.34179,4.13574 -0.15381,2.15332 -0.3418,4.32373 l 0.1709,0.0171 q 0.82031,-3.34961 1.8457,-6.23779 1.04248,-2.90527 2.32422,-5.0415 1.29883,-2.13624 2.83692,-3.34961 1.55517,-1.23047 3.40087,-1.23047 0.64942,0 1.21338,0.20508 0.56397,0.20507 0.97412,0.58105 0.41016,0.35889 0.64942,0.87158 0.23926,0.49561 0.23926,1.09375 0,0.76905 -0.3418,1.48682 -0.32471,0.70068 -1.04248,1.24756 h -0.13672 q -0.71777,-0.59815 -1.36719,-0.8545 -0.63232,-0.27343 -1.3501,-0.27343 -0.76904,0 -1.48681,0.29052 -0.71777,0.29053 -1.31592,0.83741 -0.97412,0.88867 -1.81152,2.3584 -0.83741,1.45263 -1.53809,3.22998 -0.68359,1.77734 -1.24756,3.74267 -0.54687,1.94824 -0.95703,3.81104 -0.39307,1.8457 -0.64941,3.48632 -0.23926,1.62354 -0.3418,2.73438 z" />
    <path
       id="path1035"
       style="font-style:normal;font-variant:normal;font-weight:normal;font-stretch:normal;font-size:70px;font-family:Gabriola;-inkscape-font-specification:'Gabriola, Normal';font-variant-ligatures:normal;font-variant-caps:normal;font-variant-numeric:normal;font-variant-east-asian:normal;fill:#bcb395"
       d="m 363.71582,115.72998 q -0.59814,0 -1.05957,-0.23926 -0.46143,-0.25634 -0.78613,-0.64941 -0.32471,-0.41016 -0.49561,-0.92285 -0.1709,-0.52979 -0.1709,-1.07666 0,-0.76905 0.25635,-1.3501 0.25635,-0.59815 0.6665,-0.99121 0.41016,-0.41016 0.90577,-0.59815 0.4956,-0.20507 0.97412,-0.20507 0.58105,0 1.04248,0.22216 0.46142,0.20508 0.78613,0.58106 0.3418,0.37597 0.5127,0.87158 0.18798,0.47852 0.18798,1.04248 0,0.59815 -0.20507,1.19629 -0.20508,0.58105 -0.58106,1.05957 -0.35889,0.47852 -0.88867,0.76904 -0.5127,0.29053 -1.14502,0.29053 z m 1.48682,7.72461 q -0.29053,1.94824 -0.49561,3.91357 -0.20508,1.94825 -0.3418,3.77686 -0.11962,1.82861 -0.18798,3.46924 -0.0513,1.62353 -0.0513,2.93945 0,1.77734 0.0513,3.05908 0.0513,1.26465 0.17089,2.13623 0.11963,0.87159 0.29053,1.40137 0.18799,0.5127 0.44434,0.80322 0.27344,0.27344 0.61523,0.35889 0.35889,0.0855 0.80322,0.0855 0.82032,0 1.76026,-0.23926 0.95703,-0.25635 1.93115,-0.70068 l 0.32471,0.88867 q -0.61524,0.49561 -1.55518,1.0083 -0.92285,0.5127 -1.94824,0.93994 -1.02539,0.42725 -2.0166,0.6836 -0.97412,0.27343 -1.6919,0.27343 -0.47851,0 -0.87158,-0.0854 -0.39306,-0.0684 -0.71777,-0.37597 -0.30762,-0.30762 -0.56397,-0.90576 -0.23925,-0.59815 -0.41015,-1.62354 -0.15381,-1.02539 -0.23926,-2.56348 -0.0854,-1.53808 -0.0854,-3.72558 0,-1.28174 0.0171,-2.88819 0.0342,-1.62353 0.0854,-3.46923 0.0513,-1.8628 0.13672,-3.91358 0.0854,-2.06787 0.22217,-4.25537 0.0342,-0.47851 0.25634,-0.76904 0.22217,-0.30762 0.54688,-0.46143 0.32471,-0.1709 0.68359,-0.22217 0.37598,-0.0684 0.6836,-0.0684 1.14502,0 2.15332,0.52979 z" />
    <path
       id="path1037"
       style="font-style:normal;font-variant:normal;font-weight:normal;font-stretch:normal;font-size:70px;font-family:Gabriola;-inkscape-font-specification:'Gabriola, Normal';font-variant-ligatures:normal;font-variant-caps:normal;font-variant-numeric:normal;font-variant-east-asian:normal;fill:#bcb395"
       d="m 370.80811,147.27783 q 0.39306,-0.68359 1.17919,-1.76025 0.80323,-1.09375 1.8628,-2.44385 1.05957,-1.3501 2.30713,-2.87109 1.26464,-1.53809 2.58056,-3.09327 1.31592,-1.55517 2.63184,-3.05908 1.31592,-1.52099 2.47803,-2.81982 1.16211,-1.31592 2.11914,-2.34131 0.95703,-1.04248 1.55517,-1.64062 l -0.10254,-0.11963 q -0.71777,0.1538 -1.57226,0.23925 -0.8374,0.0684 -1.60645,0.0684 -1.16211,0 -2.22168,-0.0854 -1.05957,-0.0854 -1.94824,-0.18798 -0.87158,-0.10254 -1.53809,-0.18799 -0.6665,-0.0854 -1.02539,-0.0854 -0.73486,0 -1.333,0.20508 -0.59815,0.20507 -1.04248,0.70068 -0.44434,0.47852 -0.73487,1.29883 -0.27343,0.82031 -0.37597,2.05078 l -1.29883,-0.0342 q 0.0171,-0.92285 0.0342,-1.86279 0.0342,-0.95703 0.15381,-1.82862 0.13671,-0.88867 0.39306,-1.65771 0.25635,-0.78613 0.73487,-1.3501 0.4956,-0.58105 1.24755,-0.90576 0.75196,-0.3418 1.84571,-0.3418 0.88867,0 1.99951,0.11963 1.12793,0.11963 2.3584,0.25635 1.24756,0.13672 2.54638,0.25635 1.29883,0.11963 2.5293,0.11963 1.33301,0 2.5293,-0.20508 1.21338,-0.20508 2.03369,-0.70069 l 0.95703,0.78614 q -0.3418,0.75195 -1.04248,1.82861 -0.70068,1.05957 -1.65771,2.3584 -0.93995,1.28174 -2.10206,2.73437 -1.14501,1.45264 -2.39257,2.93946 -1.23047,1.48681 -2.51221,2.97363 -1.26465,1.48682 -2.47803,2.83691 -1.19629,1.3501 -2.27295,2.5293 -1.07666,1.1792 -1.91406,2.05078 l 0.13672,0.11963 q 0.32471,-0.13672 0.73486,-0.25635 0.42725,-0.11963 0.87158,-0.20508 0.44434,-0.0854 0.87159,-0.11962 0.44433,-0.0513 0.80322,-0.0513 1.07666,0 2.13623,0.17089 1.07666,0.15381 2.06787,0.3418 1.0083,0.18799 1.93115,0.35889 0.92285,0.15381 1.74317,0.15381 0.76904,0 1.41845,-0.20508 0.66651,-0.20508 1.1792,-0.71777 0.5127,-0.52979 0.8545,-1.41846 0.34179,-0.88867 0.47851,-2.27295 l 1.26465,0.10254 q -0.0342,2.46094 -0.41016,4.06738 -0.37597,1.60645 -1.04248,2.54639 -0.6665,0.92285 -1.57226,1.28174 -0.90576,0.37597 -1.98242,0.37597 -1.12793,0 -2.40967,-0.29052 -1.26465,-0.27344 -2.63184,-0.61524 -1.3501,-0.3418 -2.75146,-0.61523 -1.40137,-0.29053 -2.76856,-0.29053 -1.28174,0 -2.47803,0.3418 -1.17919,0.34179 -2.27294,1.21337 z" />
    <path
       id="path1039"
       style="font-style:normal;font-variant:normal;font-weight:normal;font-stretch:normal;font-size:70px;font-family:Gabriola;-inkscape-font-specification:'Gabriola, Normal';font-variant-ligatures:normal;font-variant-caps:normal;font-variant-numeric:normal;font-variant-east-asian:normal;fill:#bcb395"
       d="m 432.21191,101.63086 q -0.61523,4.34082 -1.1792,8.88672 -0.56396,4.5459 -0.99121,9.05762 -0.42724,4.51171 -0.68359,8.88671 -0.25635,4.375 -0.25635,8.39112 0,1.93115 0.0342,3.31543 0.0513,1.38427 0.13672,2.34131 0.10254,0.95703 0.25635,1.52099 0.1709,0.56397 0.41015,0.87158 0.25635,0.30762 0.58106,0.41016 0.32471,0.0855 0.76904,0.0855 0.82031,0 1.76026,-0.23926 0.95703,-0.25635 1.93115,-0.70068 l 0.32471,0.88867 q -0.61524,0.49561 -1.55518,1.0083 -0.92285,0.5127 -1.94824,0.93994 -1.02539,0.42725 -2.0166,0.6836 -0.97412,0.27343 -1.6919,0.27343 -0.52978,0 -0.92285,-0.11963 -0.39307,-0.11962 -0.68359,-0.42724 -0.27344,-0.29053 -0.47852,-0.78613 -0.18799,-0.49561 -0.30762,-1.26465 -0.15381,-1.02539 -0.25634,-2.39258 -0.0855,-1.36719 -0.0855,-2.97363 0,-1.70899 0.11963,-3.46924 0.13671,-1.77735 0.42724,-3.5376 l -0.15381,-0.0342 q -1.31591,3.46924 -2.87109,6.27197 -1.53809,2.80274 -3.17871,4.78516 -1.64063,1.98242 -3.29834,3.05908 -1.65772,1.05957 -3.17871,1.05957 -1.53809,0 -2.64893,-0.78613 -1.11084,-0.76904 -1.82861,-2.03369 -0.70069,-1.28174 -1.04248,-2.92237 -0.3418,-1.65771 -0.3418,-3.40087 0,-2.10206 0.46143,-4.13575 0.46142,-2.05078 1.31591,-3.87939 0.87159,-1.82861 2.08497,-3.38379 1.21337,-1.57227 2.71728,-2.7002 1.50391,-1.12793 3.24707,-1.76025 1.76026,-0.64941 3.69141,-0.64941 1.3501,0 2.6831,0.34179 1.3501,0.3418 2.68311,1.12793 0.0854,-2.90527 0.20508,-5.89599 0.13672,-3.00782 0.30761,-5.84473 0.1709,-2.83691 0.37598,-5.36621 0.20508,-2.5293 0.44434,-4.51172 0.0513,-0.41016 0.27343,-0.70068 0.22217,-0.30762 0.56397,-0.47852 0.3418,-0.18799 0.76904,-0.27344 0.42725,-0.0855 0.87158,-0.0855 1.02539,0 2.15332,0.54688 z m -6.13525,24.07959 q -2.30713,-1.09375 -4.58008,-1.09375 -1.65771,0 -3.05908,0.52978 -1.38428,0.52979 -2.49512,1.46973 -1.11084,0.92285 -1.94824,2.1875 -0.8374,1.24756 -1.38428,2.7002 -0.54687,1.43554 -0.8374,2.99072 -0.27344,1.55517 -0.27344,3.09326 0,0.54688 0.0513,1.26465 0.0513,0.70068 0.18799,1.46973 0.15381,0.75195 0.39307,1.48681 0.23926,0.71778 0.59814,1.29883 0.35889,0.58105 0.85449,0.93994 0.5127,0.3418 1.19629,0.3418 1.23047,0 2.51221,-0.92285 1.28174,-0.92285 2.49512,-2.44385 1.23047,-1.521 2.30713,-3.48633 1.09375,-1.96533 1.93115,-4.0332 0.85449,-2.08496 1.38428,-4.10156 0.54687,-2.0337 0.6665,-3.69141 z" />
    <path
       id="path1041"
       style="font-style:normal;font-variant:normal;font-weight:normal;font-stretch:normal;font-size:70px;font-family:Gabriola;-inkscape-font-specification:'Gabriola, Normal';font-variant-ligatures:normal;font-variant-caps:normal;font-variant-numeric:normal;font-variant-east-asian:normal;fill:#bcb395"
       d="m 454.41162,142.20215 q 0.10254,0.0513 0.25635,0.15381 0.1709,0.0854 0.30762,0.20508 0.13671,0.10253 0.23925,0.23925 0.10254,0.11963 0.10254,0.23926 0,0.0684 -0.0513,0.13672 -0.95703,1.33301 -2.06787,2.32422 -1.09375,0.97412 -2.29004,1.64062 -1.1792,0.64942 -2.40966,0.95703 -1.23047,0.32471 -2.42676,0.32471 -2.05078,0 -3.75977,-0.8374 -1.70898,-0.8374 -2.93945,-2.29004 -1.23047,-1.45264 -1.93115,-3.40088 -0.6836,-1.96533 -0.6836,-4.2041 0,-1.82861 0.39307,-3.65723 0.41016,-1.82861 1.16211,-3.48633 0.76904,-1.65771 1.86279,-3.07617 1.09375,-1.43554 2.47803,-2.47802 1.40137,-1.05957 3.05908,-1.65772 1.67481,-0.59814 3.58887,-0.59814 1.26465,0 2.40967,0.34179 1.14502,0.3418 1.99951,0.99121 0.87158,0.63233 1.38427,1.57227 0.5127,0.93994 0.5127,2.13623 0,1.74316 -1.14502,3.04199 -1.12793,1.29883 -3.12744,2.20459 -1.99951,0.90576 -4.7168,1.46973 -2.70019,0.54687 -5.84472,0.82031 v 0.29053 q 0,2.1875 0.54687,3.99902 0.56397,1.81153 1.53809,3.11035 0.97412,1.28174 2.29004,1.99952 1.31591,0.71777 2.83691,0.71777 1.53809,0 3.14453,-0.75195 1.62354,-0.76905 3.28125,-2.47803 z M 451.19873,128.479 q 0,-0.78613 -0.27344,-1.46972 -0.25634,-0.6836 -0.73486,-1.1792 -0.46143,-0.5127 -1.11084,-0.80322 -0.64941,-0.29053 -1.40137,-0.29053 -1.11084,0 -2.0166,0.39306 -0.90576,0.39307 -1.62353,1.07666 -0.71778,0.66651 -1.26465,1.57227 -0.54688,0.88867 -0.93994,1.89697 -0.37598,1.0083 -0.61524,2.06787 -0.23926,1.05957 -0.3418,2.06788 2.42676,-0.1709 4.34083,-0.58106 1.93115,-0.42725 3.24707,-1.07666 1.333,-0.6665 2.03369,-1.57227 0.70068,-0.92285 0.70068,-2.10205 z" />
    <path
       id="path1043"
       style="font-style:normal;font-variant:normal;font-weight:normal;font-stretch:normal;font-size:70px;font-family:Gabriola;-inkscape-font-specification:'Gabriola, Normal';font-variant-ligatures:normal;font-variant-caps:normal;font-variant-numeric:normal;font-variant-east-asian:normal;fill:#bcb395"
       d="m 467.04102,101.63086 q -0.3418,2.90527 -0.6836,5.96435 -0.32471,3.042 -0.63232,6.16944 -0.29053,3.11035 -0.54688,6.25488 -0.25635,3.14453 -0.44433,6.20361 -0.18799,3.042 -0.29053,5.98145 -0.10254,2.93945 -0.10254,5.63965 0,1.69189 0.0342,2.90527 0.0513,1.21338 0.13672,2.05078 0.10254,0.83741 0.25635,1.3501 0.17089,0.5127 0.41015,0.78613 0.23926,0.27344 0.56397,0.37598 0.3247,0.0855 0.76904,0.0855 0.82031,0 1.76025,-0.23926 0.95704,-0.25635 1.93116,-0.70068 l 0.3247,0.88867 q -0.61523,0.49561 -1.55517,1.0083 -0.92285,0.5127 -1.94824,0.93994 -1.02539,0.42725 -2.01661,0.6836 -0.97412,0.27343 -1.69189,0.27343 -0.92285,0 -1.46973,-0.47851 -0.52978,-0.46143 -0.82031,-1.521 -0.27344,-1.05957 -0.35889,-2.75146 -0.0684,-1.70899 -0.0684,-4.15284 0,-0.88867 0.0513,-2.52929 0.0513,-1.65772 0.13672,-3.84522 0.10254,-2.1875 0.22217,-4.78515 0.11963,-2.59766 0.25635,-5.36621 0.13672,-2.78565 0.29053,-5.60547 0.1538,-2.83692 0.30761,-5.46875 0.15381,-2.64893 0.29053,-4.99024 0.13672,-2.34131 0.25635,-4.13574 0.0171,-0.41016 0.23926,-0.70068 0.22216,-0.30762 0.56396,-0.47852 0.35889,-0.18799 0.78613,-0.27344 0.44434,-0.0855 0.88868,-0.0855 1.02539,0 2.15332,0.54688 z" />
    <path
       id="path1045"
       style="font-style:normal;font-variant:normal;font-weight:normal;font-stretch:normal;font-size:70px;font-family:Gabriola;-inkscape-font-specification:'Gabriola, Normal';font-variant-ligatures:normal;font-variant-caps:normal;font-variant-numeric:normal;font-variant-east-asian:normal;fill:#bcb395"
       d="m 493.12012,110.1416 q -0.0171,0.85449 -0.0513,2.54639 -0.0342,1.69189 -0.0854,3.94775 -0.0513,2.23877 -0.13672,4.90479 -0.0684,2.64892 -0.15381,5.43457 -0.0855,2.76855 -0.18799,5.52002 -0.10254,2.75146 -0.20508,5.19531 -0.10253,2.44385 -0.22216,4.44336 -0.10254,1.98242 -0.20508,3.22998 1.69189,0.44434 3.11035,0.59814 1.43555,0.13672 2.81982,0.13672 2.8711,0 5.12696,-0.71777 2.27295,-0.71777 3.98193,-1.99951 1.72608,-1.29883 2.92236,-3.07617 1.21338,-1.77735 1.96534,-3.89649 0.76904,-2.11914 1.11084,-4.51172 0.35888,-2.39258 0.35888,-4.90478 0,-3.75977 -0.8374,-6.88721 -0.82031,-3.12744 -2.70019,-5.3833 -1.8628,-2.25586 -4.87061,-3.50342 -3.00781,-1.26465 -7.34863,-1.26465 -1.07666,0 -2.17041,0.0513 -1.09375,0.0513 -2.22168,0.13672 z m -10.30518,-0.56396 q 1.81152,-0.3418 3.72559,-0.64942 1.91406,-0.3247 3.8623,-0.56396 1.94824,-0.23926 3.89649,-0.37598 1.96533,-0.15381 3.87939,-0.15381 2.66602,0 5.16113,0.3418 2.51221,0.32471 4.7168,1.12793 2.22168,0.78613 4.06738,2.11914 1.84571,1.31592 3.16162,3.29834 1.33301,1.96533 2.06788,4.66553 0.73486,2.70019 0.73486,6.23779 0,3.17871 -0.63233,6.10107 -0.63232,2.90528 -1.8457,5.41748 -1.21338,2.51221 -2.97363,4.56299 -1.74317,2.05078 -3.99902,3.52051 -2.23877,1.45264 -4.95606,2.25586 -2.70019,0.78613 -5.81055,0.78613 -1.60644,0 -3.26416,-0.22217 -1.65771,-0.22216 -3.45214,-0.68359 l -3.38379,0.41016 -0.30762,-0.0342 q 0.11963,-1.09375 0.25635,-2.88819 0.13672,-1.81152 0.25634,-4.2041 0.13672,-2.39258 0.25635,-5.31494 0.11963,-2.93945 0.20508,-6.30615 0.10254,-3.38379 0.15381,-7.12647 0.0513,-3.74267 0.0513,-7.77587 0,-0.82032 -0.0684,-1.43555 -0.0684,-0.61524 -0.35889,-1.02539 -0.27344,-0.41016 -0.8374,-0.61524 -0.54688,-0.20507 -1.50391,-0.20507 -1.12793,0 -2.88818,0.25634 z" />
    <path
       id="path1047"
       style="font-style:normal;font-variant:normal;font-weight:normal;font-stretch:normal;font-size:70px;font-family:Gabriola;-inkscape-font-specification:'Gabriola, Normal';font-variant-ligatures:normal;font-variant-caps:normal;font-variant-numeric:normal;font-variant-east-asian:normal;fill:#bcb395"
       d="m 539.72412,142.20215 q 0.10254,0.0513 0.25635,0.15381 0.1709,0.0854 0.30762,0.20508 0.13671,0.10253 0.23925,0.23925 0.10254,0.11963 0.10254,0.23926 0,0.0684 -0.0513,0.13672 -0.95703,1.33301 -2.06787,2.32422 -1.09375,0.97412 -2.29004,1.64062 -1.1792,0.64942 -2.40966,0.95703 -1.23047,0.32471 -2.42676,0.32471 -2.05078,0 -3.75977,-0.8374 -1.70898,-0.8374 -2.93945,-2.29004 -1.23047,-1.45264 -1.93115,-3.40088 -0.6836,-1.96533 -0.6836,-4.2041 0,-1.82861 0.39307,-3.65723 0.41016,-1.82861 1.16211,-3.48633 0.76904,-1.65771 1.86279,-3.07617 1.09375,-1.43554 2.47803,-2.47802 1.40137,-1.05957 3.05908,-1.65772 1.67481,-0.59814 3.58887,-0.59814 1.26465,0 2.40967,0.34179 1.14502,0.3418 1.99951,0.99121 0.87158,0.63233 1.38427,1.57227 0.5127,0.93994 0.5127,2.13623 0,1.74316 -1.14502,3.04199 -1.12793,1.29883 -3.12744,2.20459 -1.99951,0.90576 -4.7168,1.46973 -2.70019,0.54687 -5.84472,0.82031 v 0.29053 q 0,2.1875 0.54687,3.99902 0.56397,1.81153 1.53809,3.11035 0.97412,1.28174 2.29004,1.99952 1.31591,0.71777 2.83691,0.71777 1.53809,0 3.14453,-0.75195 1.62354,-0.76905 3.28125,-2.47803 z M 536.51123,128.479 q 0,-0.78613 -0.27344,-1.46972 -0.25634,-0.6836 -0.73486,-1.1792 -0.46143,-0.5127 -1.11084,-0.80322 -0.64941,-0.29053 -1.40137,-0.29053 -1.11084,0 -2.0166,0.39306 -0.90576,0.39307 -1.62353,1.07666 -0.71778,0.66651 -1.26465,1.57227 -0.54688,0.88867 -0.93994,1.89697 -0.37598,1.0083 -0.61524,2.06787 -0.23926,1.05957 -0.3418,2.06788 2.42676,-0.1709 4.34083,-0.58106 1.93115,-0.42725 3.24707,-1.07666 1.333,-0.6665 2.03369,-1.57227 0.70068,-0.92285 0.70068,-2.10205 z" />
    <path
       id="path1049"
       style="font-style:normal;font-variant:normal;font-weight:normal;font-stretch:normal;font-size:70px;font-family:Gabriola;-inkscape-font-specification:'Gabriola, Normal';font-variant-ligatures:normal;font-variant-caps:normal;font-variant-numeric:normal;font-variant-east-asian:normal;fill:#bcb395"
       d="m 546.50879,141.33057 q 0.11963,1.29882 0.68359,2.23877 0.58106,0.93994 1.41846,1.53808 0.8374,0.59815 1.8457,0.88867 1.02539,0.29053 2.03369,0.29053 0.93995,0 1.81153,-0.25635 0.87158,-0.25634 1.53808,-0.73486 0.66651,-0.47852 1.05957,-1.1792 0.41016,-0.70068 0.41016,-1.57226 0,-0.90577 -0.42725,-1.58936 -0.42724,-0.68359 -1.14502,-1.24756 -0.71777,-0.56396 -1.6748,-1.04248 -0.93994,-0.47851 -1.96533,-0.97412 -0.90576,-0.42725 -1.82862,-0.85449 -0.90576,-0.44434 -1.76025,-0.95703 -0.85449,-0.5127 -1.60644,-1.11084 -0.73487,-0.59815 -1.29883,-1.31592 -0.54688,-0.73486 -0.87158,-1.62354 -0.30762,-0.90576 -0.30762,-1.99951 0,-1.1792 0.41015,-2.17041 0.41016,-0.99121 1.11084,-1.77734 0.71778,-0.80322 1.64063,-1.40137 0.93994,-0.59814 1.99951,-0.99121 1.05957,-0.41016 2.17041,-0.59814 1.12793,-0.20508 2.1875,-0.20508 1.36719,0 2.58057,0.30761 1.23047,0.29053 2.13623,0.87159 0.92285,0.56396 1.45263,1.38427 0.54688,0.82032 0.54688,1.84571 0,0.39306 -0.13672,0.85449 -0.13672,0.46142 -0.46142,0.87158 -0.32471,0.39307 -0.8545,0.6665 -0.52978,0.27344 -1.29883,0.29053 -0.71777,0 -1.5039,-0.22217 l -0.0513,-0.17089 q 0.23926,-0.54688 0.3418,-1.00831 0.10253,-0.46142 0.10253,-0.85449 -0.0171,-0.78613 -0.41015,-1.31592 -0.37598,-0.54687 -0.95703,-0.88867 -0.58106,-0.34179 -1.29883,-0.4956 -0.70068,-0.15381 -1.38428,-0.15381 -1.21338,0 -2.17041,0.32471 -0.95703,0.3247 -1.62353,0.87158 -0.64942,0.52978 -1.0083,1.21338 -0.3418,0.68359 -0.3418,1.41845 0,0.93995 0.4956,1.6919 0.49561,0.73486 1.31592,1.36719 0.82031,0.61523 1.87989,1.16211 1.07666,0.54687 2.23876,1.09375 1.29883,0.61523 2.58057,1.28173 1.28174,0.64942 2.29004,1.48682 1.0083,0.8374 1.62354,1.93115 0.63232,1.07666 0.63232,2.54639 0,1.76025 -0.78613,3.12744 -0.76905,1.36719 -2.06787,2.30713 -1.29883,0.93994 -2.99073,1.41846 -1.6748,0.4956 -3.48633,0.4956 -0.90576,0 -1.87988,-0.13672 -0.95703,-0.13672 -1.86279,-0.41015 -0.90576,-0.27344 -1.72608,-0.66651 -0.80322,-0.41015 -1.41845,-0.92285 -0.59815,-0.52978 -0.95703,-1.16211 -0.3418,-0.64941 -0.3418,-1.41846 0,-0.6665 0.27344,-1.12792 0.29052,-0.46143 0.75195,-0.75196 0.46143,-0.29053 1.02539,-0.42724 0.58106,-0.15381 1.1792,-0.1709 z" />
    <path
       id="path1051"
       style="font-style:normal;font-variant:normal;font-weight:normal;font-stretch:normal;font-size:70px;font-family:Gabriola;-inkscape-font-specification:'Gabriola, Normal';font-variant-ligatures:normal;font-variant-caps:normal;font-variant-numeric:normal;font-variant-east-asian:normal;fill:#bcb395"
       d="m 573.04932,110.55176 q -0.71778,3.24707 -1.21338,6.71631 -0.47852,3.45214 -0.82032,6.81884 0.80323,0.0342 1.55518,0.0513 0.76904,0.0171 1.41846,0.0342 0.6665,0.0171 1.19629,0.0171 0.54687,0 0.90576,0 1.55517,0 2.54639,-0.18799 0.0854,0.29053 0.13671,0.52979 0.0513,0.23926 0.0513,0.44434 0,0.75195 -0.63232,0.97412 -0.61524,0.22217 -1.79443,0.22217 -1.12793,0 -2.5293,-0.13672 -1.38428,-0.13672 -3.04199,-0.25635 -0.18799,1.82861 -0.32471,3.57178 -0.11963,1.72607 -0.20508,3.26416 -0.0684,1.53808 -0.10254,2.854 -0.0342,1.31592 -0.0342,2.29004 0,1.82861 0.18799,3.26416 0.18799,1.43555 0.6665,2.44385 0.47852,0.99121 1.31592,1.52099 0.83741,0.52979 2.11914,0.52979 0.92286,0 2.05078,-0.32471 1.14502,-0.32471 2.59766,-1.04248 0.46143,0.46143 0.52979,1.12793 -1.05957,0.70068 -2.13623,1.28174 -1.07666,0.56396 -2.11914,0.97412 -1.04249,0.41016 -2.01661,0.63232 -0.97412,0.22217 -1.8457,0.22217 -1.14502,0 -2.10205,-0.42724 -0.93994,-0.41016 -1.64063,-1.46973 -0.68359,-1.07666 -1.07666,-2.88818 -0.37597,-1.81153 -0.37597,-4.58008 0,-1.55518 0.0513,-3.1958 0.0513,-1.65772 0.13672,-3.34961 0.0855,-1.6919 0.22216,-3.38379 0.13672,-1.6919 0.30762,-3.33252 -1.3501,0.0171 -2.51221,0.11963 -1.14502,0.0855 -1.96533,0.29053 -0.0513,-0.10254 -0.0513,-0.23926 0,-0.35889 0.3418,-0.66651 0.35889,-0.3247 0.97412,-0.58105 0.63232,-0.25635 1.50391,-0.42725 0.87158,-0.1709 1.91406,-0.23926 0.39307,-3.57177 0.8374,-6.75048 0.44434,-3.17871 0.88867,-5.67383 0.0855,-0.44434 0.30762,-0.73486 0.23926,-0.29053 0.54688,-0.46143 0.30761,-0.1709 0.6665,-0.23926 0.35889,-0.0684 0.70068,-0.0684 0.56397,0 1.0083,0.11963 0.46143,0.11963 0.8545,0.3418 z" />
    <path
       id="path1053"
       style="font-style:normal;font-variant:normal;font-weight:normal;font-stretch:normal;font-size:70px;font-family:Gabriola;-inkscape-font-specification:'Gabriola, Normal';font-variant-ligatures:normal;font-variant-caps:normal;font-variant-numeric:normal;font-variant-east-asian:normal;fill:#bcb395"
       d="m 586.43066,115.72998 q -0.59814,0 -1.05957,-0.23926 -0.46142,-0.25634 -0.78613,-0.64941 -0.32471,-0.41016 -0.4956,-0.92285 -0.1709,-0.52979 -0.1709,-1.07666 0,-0.76905 0.25634,-1.3501 0.25635,-0.59815 0.66651,-0.99121 0.41015,-0.41016 0.90576,-0.59815 0.49561,-0.20507 0.97412,-0.20507 0.58106,0 1.04248,0.22216 0.46143,0.20508 0.78613,0.58106 0.3418,0.37597 0.5127,0.87158 0.18799,0.47852 0.18799,1.04248 0,0.59815 -0.20508,1.19629 -0.20508,0.58105 -0.58105,1.05957 -0.35889,0.47852 -0.88868,0.76904 -0.51269,0.29053 -1.14502,0.29053 z m 1.48682,7.72461 q -0.29053,1.94824 -0.49561,3.91357 -0.20507,1.94825 -0.34179,3.77686 -0.11963,1.82861 -0.18799,3.46924 -0.0513,1.62353 -0.0513,2.93945 0,1.77734 0.0513,3.05908 0.0513,1.26465 0.1709,2.13623 0.11963,0.87159 0.29053,1.40137 0.18798,0.5127 0.44433,0.80322 0.27344,0.27344 0.61524,0.35889 0.35888,0.0855 0.80322,0.0855 0.82031,0 1.76025,-0.23926 0.95703,-0.25635 1.93115,-0.70068 l 0.32471,0.88867 q -0.61523,0.49561 -1.55517,1.0083 -0.92286,0.5127 -1.94825,0.93994 -1.02539,0.42725 -2.0166,0.6836 -0.97412,0.27343 -1.69189,0.27343 -0.47852,0 -0.87158,-0.0854 -0.39307,-0.0684 -0.71778,-0.37597 -0.30761,-0.30762 -0.56396,-0.90576 -0.23926,-0.59815 -0.41016,-1.62354 -0.15381,-1.02539 -0.23926,-2.56348 -0.0854,-1.53808 -0.0854,-3.72558 0,-1.28174 0.0171,-2.88819 0.0342,-1.62353 0.0855,-3.46923 0.0513,-1.8628 0.13672,-3.91358 0.0855,-2.06787 0.22217,-4.25537 0.0342,-0.47851 0.25635,-0.76904 0.22217,-0.30762 0.54687,-0.46143 0.32471,-0.1709 0.6836,-0.22217 0.37597,-0.0684 0.68359,-0.0684 1.14502,0 2.15332,0.52979 z" />
    <path
       id="path1055"
       style="font-style:normal;font-variant:normal;font-weight:normal;font-stretch:normal;font-size:70px;font-family:Gabriola;-inkscape-font-specification:'Gabriola, Normal';font-variant-ligatures:normal;font-variant-caps:normal;font-variant-numeric:normal;font-variant-east-asian:normal;fill:#bcb395"
       d="m 597.79541,127.84668 q 0,-0.70068 -0.10254,-1.1792 -0.10254,-0.47852 -0.32471,-0.75195 -0.20507,-0.29053 -0.52978,-0.41016 -0.32471,-0.11963 -0.76904,-0.11963 -0.61524,0 -1.46973,0.1709 -0.85449,0.1709 -1.94824,0.46143 l -0.25635,-1.23047 q 1.21338,-0.42725 2.32422,-0.76905 1.12793,-0.35888 2.06787,-0.61523 0.93994,-0.25635 1.65771,-0.39307 0.71778,-0.13671 1.12793,-0.13671 0.99121,0 1.53809,0.59814 0.56396,0.58105 0.56396,2.0166 0,0.1709 -0.0342,0.80322 -0.0342,0.61524 -0.10253,1.57227 -0.0513,0.95703 -0.13672,2.20459 -0.0855,1.23047 -0.20508,2.63184 -0.10254,1.40136 -0.23926,2.90527 -0.13672,1.48682 -0.29053,2.97363 l 0.10254,0.0171 q 1.29883,-4.40918 2.78565,-7.43408 1.48681,-3.04199 3.0249,-4.92188 1.53809,-1.89697 3.05908,-2.73437 1.521,-0.8374 2.90528,-0.8374 0.95703,0 1.8457,0.35888 0.88867,0.35889 1.57226,1.14502 0.70069,0.78614 1.11084,2.03369 0.41016,1.23047 0.41016,2.99073 0,0.51269 -0.0684,1.38427 -0.0513,0.8545 -0.13672,1.91407 -0.0855,1.05957 -0.20508,2.25586 -0.10254,1.1792 -0.18798,2.32422 -0.0855,1.14501 -0.15381,2.1875 -0.0513,1.02539 -0.0513,1.79443 0,1.33301 0.10254,2.17041 0.11963,0.8374 0.37597,1.33301 0.25635,0.47851 0.6836,0.6665 0.42724,0.1709 1.04248,0.1709 0.88867,0 1.8457,-0.23926 0.95703,-0.25635 1.93115,-0.70068 l 0.32471,0.88867 q -0.61523,0.49561 -1.55518,1.0083 -0.93994,0.5127 -1.98242,0.93994 -1.02539,0.42725 -2.05078,0.6836 -1.02539,0.27343 -1.81152,0.27343 -0.92285,0 -1.45264,-0.4956 -0.52978,-0.49561 -0.80322,-1.3501 -0.25635,-0.85449 -0.3418,-1.99951 -0.0684,-1.14502 -0.0684,-2.46094 0,-1.60644 0.10254,-3.29834 0.11963,-1.70898 0.25635,-3.24707 0.13672,-1.53809 0.23926,-2.78564 0.11963,-1.26465 0.11963,-2.01661 0,-1.99951 -0.75196,-2.93945 -0.75195,-0.95703 -1.99951,-0.95703 -0.99121,0 -2.08496,0.8374 -1.09375,0.8374 -2.1875,2.30713 -1.07666,1.45264 -2.08496,3.45215 -0.99121,1.98242 -1.79444,4.30664 -0.80322,2.30713 -1.333,4.83643 -0.52979,2.52929 -0.66651,5.05859 l -3.57177,0.44434 -0.27344,-0.0171 q 0.13672,-1.62354 0.25635,-3.5376 0.11962,-1.91406 0.22216,-3.8794 0.10254,-1.98242 0.1709,-3.91357 0.0855,-1.94824 0.13672,-3.62305 0.0684,-1.69189 0.0854,-3.0249 0.0342,-1.33301 0.0342,-2.10205 z" />
    <path
       id="path1057"
       style="font-style:normal;font-variant:normal;font-weight:normal;font-stretch:normal;font-size:70px;font-family:Gabriola;-inkscape-font-specification:'Gabriola, Normal';font-variant-ligatures:normal;font-variant-caps:normal;font-variant-numeric:normal;font-variant-east-asian:normal;fill:#bcb395"
       d="m 624.50684,137.67334 q 0,-1.72607 0.35888,-3.50342 0.35889,-1.77734 1.05957,-3.43506 0.70069,-1.6748 1.72608,-3.12744 1.04248,-1.46972 2.39258,-2.56347 1.35009,-1.09375 3.00781,-1.72608 1.65771,-0.63232 3.60595,-0.63232 2.1875,0 3.86231,0.92285 1.69189,0.92285 2.83691,2.44385 1.14502,1.5039 1.72608,3.43505 0.59814,1.93116 0.59814,3.94776 0,1.72607 -0.35888,3.50342 -0.35889,1.77734 -1.07666,3.45214 -0.70069,1.65772 -1.74317,3.12745 -1.02539,1.45263 -2.37549,2.54638 -1.35009,1.09375 -3.00781,1.72608 -1.65771,0.63232 -3.60596,0.63232 -2.1875,0 -3.87939,-0.92285 -1.67481,-0.92285 -2.81983,-2.42676 -1.12792,-1.52099 -1.72607,-3.45215 -0.58105,-1.93115 -0.58105,-3.94775 z m 4.08447,-1.62354 q 0,1.16211 0.1709,2.3584 0.18799,1.19629 0.56396,2.30713 0.37598,1.11084 0.92285,2.08496 0.56397,0.95703 1.31592,1.67481 0.76904,0.71777 1.70899,1.12793 0.95703,0.41015 2.10205,0.41015 1.24756,0 2.1875,-0.52978 0.95703,-0.54688 1.64062,-1.43555 0.70069,-0.88867 1.14502,-2.03369 0.46143,-1.14502 0.73486,-2.3584 0.27344,-1.23047 0.37598,-2.42676 0.11963,-1.19629 0.11963,-2.20459 0,-1.1792 -0.18799,-2.35839 -0.1709,-1.19629 -0.54687,-2.29004 -0.37598,-1.11084 -0.93994,-2.06787 -0.54688,-0.97413 -1.31592,-1.67481 -0.75196,-0.71777 -1.70899,-1.12793 -0.93994,-0.41016 -2.08496,-0.41016 -1.24756,0 -2.20459,0.52979 -0.93994,0.52979 -1.64062,1.41846 -0.6836,0.88867 -1.14502,2.03369 -0.44434,1.14502 -0.71778,2.3584 -0.27343,1.21338 -0.39306,2.42675 -0.10254,1.19629 -0.10254,2.1875 z" />
  </g>
</svg>
