<?xml version="1.0" encoding="UTF-8"?>
<svg width="100%" height="100%" version="1.1" viewBox="0 0 254 254" xmlns="http://www.w3.org/2000/svg" xmlns:cc="http://creativecommons.org/ns#" xmlns:dc="http://purl.org/dc/elements/1.1/" xmlns:rdf="http://www.w3.org/1999/02/22-rdf-syntax-ns#">

<metadata>
<rdf:RDF>
<cc:Work rdf:about="">
<dc:format>image/svg+xml</dc:format>
<dc:type rdf:resource="http://purl.org/dc/dcmitype/StillImage"/>
<dc:title/>
</cc:Work>
</rdf:RDF>
</metadata>

<g class="layer1" stroke="#bcb395" stroke-width=".24">
	<circle cx="127" cy="127" r="90" fill="none" opacity=".999" />

	<rect x="63.360390" y="63.360390" width="127" height="127" fill="none" opacity=".999" />

	<line x1="127" y1="37" x2="127" y2="217" />
	<line x1="37" y1="127" x2="217" y2="127" />

	<line x1="37" y1="127" x2="127" y2="37" />
	<line x1="37" y1="127" x2="127" y2="217" />
	<line x1="127" y1="37" x2="217" y2="127" />
	<line x1="127" y1="217" x2="217" y2="127" />

	<line x1="51" y1="127" x2="127" y2="51" />
	<line x1="64" y1="127" x2="127" y2="64" />
	<line x1="127" y1="190" x2="190" y2="127" />
	<line x1="127" y1="203" x2="203" y2="127" />

	<line x1="63.360390" y1="63.360390" x2="190.639610" y2="190.639610" style="stroke:#bcb395;stroke-width:0.24;stroke-miterlimit:4;stroke-dasharray:0.96000001,1.92000001;stroke-dashoffset:0" />
	<line x1="63.360390" y1="190.639610" x2="190.639610" y2="63.360390" style="stroke:#bcb395;stroke-width:0.24;stroke-miterlimit:4;stroke-dasharray:0.96000001,1.92000001;stroke-dashoffset:0" />

	<text x="-52.400311" y="177.58769" transform="rotate(-45)"
		style="font-style:normal;font-weight:normal;font-size:3.52778px;line-height:1.25;font-family:sans-serif;fill:#bcb395;fill-opacity:1;stroke:none;stroke-width:0.264583">
		Línea materna
	</text>
	<text x="193.83521" y="-1.8544561" transform="rotate(45)"
		style="font-style:normal;font-weight:normal;font-size:3.52777px;line-height:1.25;font-family:sans-serif;fill:#bcb395;fill-opacity:1;stroke:none;stroke-width:0.264583">
		Línea paterna
	</text>

</g>
<g class="layer2" stroke-width=".45">
	<circle class="circle5-1" cx="53.5" cy="127" r="6.2" fill="#155493" stroke="#155493" />
	<circle class="circle5-2" cx="66.5" cy="127" r="6.2" fill="#009ED1" stroke="#009ED1" />
	<circle class="circle5-3" cx="200.5" cy="127" r="6.2" fill="#F28D3B" stroke="#F28D3B" />
	<circle class="circle5-4" cx="187.5" cy="127" r="6.2" fill="#EFBE3D" stroke="#EFBE3D" />
	<circle class="circle5-5" cx="127" cy="53.5" r="6.2" fill="#155493" stroke="#155493" />
	<circle class="circle5-6" cx="127" cy="66.5" r="6.2" fill="#009ED1" stroke="#009ED1" />
	<circle class="circle5-7" cx="127" cy="200.5" r="6.2" fill="#F28D3B" stroke="#F28D3B" />
	<circle class="circle5-8" cx="127" cy="187.5" r="6.2" fill="#EFBE3D" stroke="#EFBE3D" />
	<!-- -->
	<circle class="circle4-1" cx="82" cy="82" r="4.2" fill="#664074" stroke="#664074" />
	<circle class="circle4-2" cx="89" cy="89" r="4.2" fill="#155493" stroke="#155493" />
	<circle class="circle4-3" cx="95.5" cy="95.5" r="4.2" fill="#009ED1" stroke="#009ED1" />
	<circle class="circle4-4" cx="158.5" cy="158.5" r="4.2" fill="#EFBE3D" stroke="#EFBE3D" />
	<circle class="circle4-5" cx="172" cy="172" r="4.2" fill="#E54144" stroke="#E54144" />
	<circle class="circle4-6" cx="165" cy="165" r="4.2" fill="#F28D3B" stroke="#F28D3B" />
	<!-- -->
	<circle class="circleC-1" cx="144" cy="127" r="6.2" fill="#A59E84" stroke="#A59E84" />
	<circle class="circleC-2" cx="155" cy="127" r="4.2" fill="#A59E84" stroke="#A59E84" />
</g>

<g class="layer3">
	<circle class="circle-c" cx="127" cy="127" r="10" fill="#009E52" stroke="#009E52" stroke-width="0.45" />
	<!-- -->
	<circle class="circle-0" cx="37" cy="127" r="9.34" fill="#664074" stroke="#664074" stroke-width="0.45" />
	<circle class="circle-10" cx="63.360390" cy="63.360390" r="9.34" fill="#bcb395" stroke="#bcb395" stroke-width="0.45" />
	<circle class="circle-20" cx="127" cy="37" r="9.34" fill="#664074" stroke="#664074" stroke-width="0.45" />
	<circle class="circle-30" cx="190.639610" cy="63.360390" r="9.34" fill="#bcb395" stroke="#bcb395" stroke-width="0.45" />
	<circle class="circle-40" cx="217" cy="127" r="9.34" fill="#E54144" stroke="#E54144" stroke-width="0.45" />
	<circle class="circle-50" cx="190.639610" cy="190.639610" r="9.34" fill="#bcb395" stroke="#bcb395" stroke-width="0.45" />
	<circle class="circle-60" cx="127" cy="217" r="9.34" fill="#E54144" stroke="#E54144" stroke-width="0.45" />
	<circle class="circle-70" cx="63.360390" cy="190.639610" r="9.34" fill="#bcb395" stroke="#bcb395" stroke-width="0.45" />
	<!-- -->
	<circle class="circle-2" cx="38.108049" cy="112.920898" r="1.22" fill="#bcb395" stroke="#bcb395" stroke-width="0.45" />
	<circle class="circle-3" cx="39.486707" cy="105.989917" r="1.22" fill="#bcb395" stroke="#bcb395" stroke-width="0.45" />
	<circle class="circle-4" cx="41.404914" cy="99.188471" r="1.22" fill="#bcb395" stroke="#bcb395" stroke-width="0.45" />
	<circle class="circle-5" cx="43.850842" cy="92.558491" r="1.3" fill="none" stroke="#bcb395" stroke-width="0.6" />
	<circle class="circle-6" cx="46.809413" cy="86.140855" r="1.22" fill="#bcb395" stroke="#bcb395" stroke-width="0.45" />
	<circle class="circle-7" cx="50.262385" cy="79.975129" r="1.22" fill="#bcb395" stroke="#bcb395" stroke-width="0.45" />
	<circle class="circle-8" cx="54.188471" cy="74.099327" r="1.22" fill="#bcb395" stroke="#bcb395" stroke-width="0.45" />
	<circle class="circle-12" cx="74.099327" cy="54.188471" r="1.22" fill="#bcb395" stroke="#bcb395" stroke-width="0.45" />
	<circle class="circle-13" cx="79.975129" cy="50.262385" r="1.22" fill="#bcb395" stroke="#bcb395" stroke-width="0.45" />
	<circle class="circle-14" cx="86.140855" cy="46.809413" r="1.22" fill="#bcb395" stroke="#bcb395" stroke-width="0.45" />
	<circle class="circle-15" cx="92.558491" cy="43.850842" r="1.3" fill="none" stroke="#bcb395" stroke-width="0.6" />
	<circle class="circle-16" cx="99.188471" cy="41.404914" r="1.22" fill="#bcb395" stroke="#bcb395" stroke-width="0.45" />
	<circle class="circle-17" cx="105.989917" cy="39.486707" r="1.22" fill="#bcb395" stroke="#bcb395" stroke-width="0.45" />
	<circle class="circle-18" cx="112.920898" cy="38.108049" r="1.22" fill="#bcb395" stroke="#bcb395" stroke-width="0.45" />
	<circle class="circle-22" cx="141.079102" cy="38.108049" r="1.22" fill="#bcb395" stroke="#bcb395" stroke-width="0.45" />
	<circle class="circle-23" cx="148.010083" cy="39.486707" r="1.22" fill="#bcb395" stroke="#bcb395" stroke-width="0.45" />
	<circle class="circle-24" cx="154.811529" cy="41.404914" r="1.22" fill="#bcb395" stroke="#bcb395" stroke-width="0.45" />
	<circle class="circle-25" cx="161.441509" cy="43.850842" r="1.3" fill="none" stroke="#bcb395" stroke-width="0.6" />
	<circle class="circle-26" cx="167.859145" cy="46.809413" r="1.22" fill="#bcb395" stroke="#bcb395" stroke-width="0.45" />
	<circle class="circle-27" cx="174.024871" cy="50.262385" r="1.22" fill="#bcb395" stroke="#bcb395" stroke-width="0.45" />
	<circle class="circle-28" cx="179.900673" cy="54.188471" r="1.22" fill="#bcb395" stroke="#bcb395" stroke-width="0.45" />
	<circle class="circle-32" cx="199.811529" cy="74.099327" r="1.22" fill="#bcb395" stroke="#bcb395" stroke-width="0.45" />
	<circle class="circle-33" cx="203.737615" cy="79.975129" r="1.22" fill="#bcb395" stroke="#bcb395" stroke-width="0.45" />
	<circle class="circle-34" cx="207.190587" cy="86.140855" r="1.22" fill="#bcb395" stroke="#bcb395" stroke-width="0.45" />
	<circle class="circle-35" cx="210.149158" cy="92.558491" r="1.3" fill="none" stroke="#bcb395" stroke-width="0.6" />
	<circle class="circle-36" cx="212.595086" cy="99.188471" r="1.22" fill="#bcb395" stroke="#bcb395" stroke-width="0.45" />
	<circle class="circle-37" cx="214.513293" cy="105.989917" r="1.22" fill="#bcb395" stroke="#bcb395" stroke-width="0.45" />
	<circle class="circle-38" cx="215.891951" cy="112.920898" r="1.22" fill="#bcb395" stroke="#bcb395" stroke-width="0.45" />
	<circle class="circle-42" cx="215.891951" cy="141.079102" r="1.22" fill="#bcb395" stroke="#bcb395" stroke-width="0.45" />
	<circle class="circle-43" cx="214.513293" cy="148.010083" r="1.22" fill="#bcb395" stroke="#bcb395" stroke-width="0.45" />
	<circle class="circle-44" cx="212.595086" cy="154.811529" r="1.22" fill="#bcb395" stroke="#bcb395" stroke-width="0.45" />
	<circle class="circle-45" cx="210.149158" cy="161.441509" r="1.3" fill="none" stroke="#bcb395" stroke-width="0.6" />
	<circle class="circle-46" cx="207.190587" cy="167.859145" r="1.22" fill="#bcb395" stroke="#bcb395" stroke-width="0.45" />
	<circle class="circle-47" cx="203.737615" cy="174.024871" r="1.22" fill="#bcb395" stroke="#bcb395" stroke-width="0.45" />
	<circle class="circle-48" cx="199.811529" cy="179.900673" r="1.22" fill="#bcb395" stroke="#bcb395" stroke-width="0.45" />
	<circle class="circle-52" cx="179.900673" cy="199.811529" r="1.22" fill="#bcb395" stroke="#bcb395" stroke-width="0.45" />
	<circle class="circle-53" cx="174.024871" cy="203.737615" r="1.22" fill="#bcb395" stroke="#bcb395" stroke-width="0.45" />
	<circle class="circle-54" cx="167.859145" cy="207.190587" r="1.22" fill="#bcb395" stroke="#bcb395" stroke-width="0.45" />
	<circle class="circle-55" cx="161.441509" cy="210.149158" r="1.3" fill="none" stroke="#bcb395" stroke-width="0.6" />
	<circle class="circle-56" cx="154.811529" cy="212.595086" r="1.22" fill="#bcb395" stroke="#bcb395" stroke-width="0.45" />
	<circle class="circle-57" cx="148.010083" cy="214.513293" r="1.22" fill="#bcb395" stroke="#bcb395" stroke-width="0.45" />
	<circle class="circle-58" cx="141.079102" cy="215.891951" r="1.22" fill="#bcb395" stroke="#bcb395" stroke-width="0.45" />
	<circle class="circle-62" cx="112.920898" cy="215.891951" r="1.22" fill="#bcb395" stroke="#bcb395" stroke-width="0.45" />
	<circle class="circle-63" cx="105.989917" cy="214.513293" r="1.22" fill="#bcb395" stroke="#bcb395" stroke-width="0.45" />
	<circle class="circle-64" cx="99.188471" cy="212.595086" r="1.22" fill="#bcb395" stroke="#bcb395" stroke-width="0.45" />
	<circle class="circle-65" cx="92.558491" cy="210.149158" r="1.3" fill="none" stroke="#bcb395" stroke-width="0.6" />
	<circle class="circle-66" cx="86.140855" cy="207.190587" r="1.22" fill="#bcb395" stroke="#bcb395" stroke-width="0.45" />
	<circle class="circle-67" cx="79.975129" cy="203.737615" r="1.22" fill="#bcb395" stroke="#bcb395" stroke-width="0.45" />
	<circle class="circle-68" cx="74.099327" cy="199.811529" r="1.22" fill="#bcb395" stroke="#bcb395" stroke-width="0.45" />
	<circle class="circle-72" cx="54.188471" cy="179.900673" r="1.22" fill="#bcb395" stroke="#bcb395" stroke-width="0.45" />
	<circle class="circle-73" cx="50.262385" cy="174.024871" r="1.22" fill="#bcb395" stroke="#bcb395" stroke-width="0.45" />
	<circle class="circle-74" cx="46.809413" cy="167.859145" r="1.22" fill="#bcb395" stroke="#bcb395" stroke-width="0.45" />
	<circle class="circle-75" cx="43.850842" cy="161.441509" r="1.3" fill="none" stroke="#bcb395" stroke-width="0.6" />
	<circle class="circle-76" cx="41.404914" cy="154.811529" r="1.22" fill="#bcb395" stroke="#bcb395" stroke-width="0.45" />
	<circle class="circle-77" cx="39.486707" cy="148.010083" r="1.22" fill="#bcb395" stroke="#bcb395" stroke-width="0.45" />
	<circle class="circle-78" cx="38.108049" cy="141.079102" r="1.22" fill="#bcb395" stroke="#bcb395" stroke-width="0.45" />
</g>

<g class="layer4" font-family="Verdana" font-size="2.8" fill="#bcb395">
	<text class="label-0" x="21" y="119">0 años</text>
	<text class="label-10" x="53" y="52">10 años</text>
	<text class="label-20" x="125" y="25.5">20 años</text>
	<text class="label-30" x="190" y="52">30 años</text>
	<text class="label-40" x="223" y="119">40 años</text>
	<text class="label-50" x="190" y="204">50 años</text>
	<text class="label-60" x="125" y="230.5">60 años</text>
	<text class="label-70" x="53" y="204">70 años</text>
</g>

<g class="layer4" font-family="Verdana" font-size="2.8" fill="#bcb395" alignment-baseline="middle" text-anchor="middle">
	<text x="42.101894" y="114.999115">2</text>
	<text x="43.472892" y="108.106640">3</text>
	<text x="45.380442" y="101.342979">4</text>
	<text x="47.812782" y="94.749833">5</text>
	<text x="50.754916" y="88.367850">6</text>
	<text x="54.188705" y="82.236378">7</text>
	<text x="58.092979" y="76.393220">8</text>
	<text x="75.893220" y="59.592979">12</text>
	<text x="81.736378" y="55.688705">13</text>
	<text x="87.867850" y="52.254916">14</text>
	<text x="94.249833" y="49.312782">15</text>
	<text x="100.842979" y="46.880442">16</text>
	<text x="107.606640" y="44.972892">17</text>
	<text x="114.499115" y="43.601894">18</text>
	<text x="139.500885" y="43.601894">22</text>
	<text x="146.393360" y="44.972892">23</text>
	<text x="153.157021" y="46.880442">24</text>
	<text x="159.750167" y="49.312782">25</text>
	<text x="166.132150" y="52.254916">26</text>
	<text x="172.263622" y="55.688705">27</text>
	<text x="178.106780" y="59.592979">28</text>
	<text x="194.907021" y="76.393220">32</text>
	<text x="198.811295" y="82.236378">33</text>
	<text x="202.245084" y="88.367850">34</text>
	<text x="205.187218" y="94.749833">35</text>
	<text x="207.619558" y="101.342979">36</text>
	<text x="209.527108" y="108.106640">37</text>
	<text x="210.898106" y="114.999115">38</text>
	<text x="210.898106" y="141.000885">42</text>
	<text x="209.527108" y="147.893360">43</text>
	<text x="207.619558" y="154.657021">44</text>
	<text x="205.187218" y="161.250167">45</text>
	<text x="202.245084" y="167.632150">46</text>
	<text x="198.811295" y="173.763622">47</text>
	<text x="194.907021" y="179.606780">48</text>
	<text x="178.106780" y="196.407021">52</text>
	<text x="172.263622" y="200.311295">53</text>
	<text x="166.132150" y="203.745084">54</text>
	<text x="159.750167" y="206.687218">55</text>
	<text x="153.157021" y="209.119558">56</text>
	<text x="146.393360" y="211.027108">57</text>
	<text x="139.500885" y="212.398106">58</text>
	<text x="114.499115" y="212.398106">62</text>
	<text x="107.606640" y="211.027108">63</text>
	<text x="100.842979" y="209.119558">64</text>
	<text x="94.249833" y="206.687218">65</text>
	<text x="87.867850" y="203.745084">66</text>
	<text x="81.736378" y="200.311295">67</text>
	<text x="75.893220" y="196.407021">68</text>
	<text x="58.092979" y="179.606780">72</text>
	<text x="54.188705" y="173.763622">73</text>
	<text x="50.754916" y="167.632150">74</text>
	<text x="47.812782" y="161.250167">75</text>
	<text x="45.380442" y="154.657021">76</text>
	<text x="43.472892" y="147.893360">77</text>
	<text x="42.101894" y="141.000885">78</text>
</g>

</svg>

